#N canvas -1 236 1924 927 10;
#X msg 3 3 \; pd dsp 1 \;;
#X msg 70 3 \; pd dsp 0 \;;
#X obj 55 104 tgl 15 0 empty empty empty 17 7 0 10 -262144 -1 -1 1
1;
#X obj 55 145 t b b;
#X obj 55 166 f;
#X obj 89 166 + 1;
#X obj 207 310 mtof;
#X obj 576 558 dac~;
#X obj 67 357 tgl 15 0 empty empty empty 17 7 0 10 -262144 -1 -1 0
1;
#X obj 32 375 spigot;
#X obj 33 415 vline~;
#X msg 32 395 1 5 \, 0.2 100 200;
#X floatatom 158 166 5 0 0 0 - - -;
#X obj 719 45 t b b;
#X obj 718 65 f;
#X obj 752 65 + 1;
#X obj 816 261 mtof;
#X obj 817 284 osc~ 440;
#X obj 577 529 *~;
#X floatatom 838 89 5 0 0 0 - - -;
#X msg 774 218 55;
#X msg 846 218 60;
#X msg 876 218 62;
#X msg 909 217 64;
#X msg 943 217 65;
#X msg 977 217 67;
#X msg 1008 218 69;
#X msg 1041 218 72;
#X obj 718 23 metro 165;
#X obj 693 417 hsl 128 15 0 127 0 0 empty empty empty -2 -8 0 10 -262144
-1 -1 0 1;
#X obj 689 437 / 127;
#X msg 689 457 \$1 20;
#X obj 689 477 line~;
#X msg 808 218 59;
#X obj 714 115 sel 0 1 2 3 4 5 6 7 8 9 10 11 12 13 14 15 16 17 18 19
20 21 22 23 24 25 26 27 28 29 30 31 32 33 34 35 36 37 38 39 40 41 42
43 44 45 46 47 48 49 50 51 52 53 54 55 56 57 58 59 60 61 62 63, f
97;
#X obj 578 508 +~;
#X obj 55 124 metro 330;
#X obj 37 197 sel 0 1 2 3 4 5 6 7 8 9 10 11 12 13 14 15 16 17 18 19
20 21 22 23 24 25 26 27 28 29 30 31 32 33 34 35 36 37 38 39 40 41 42
43 44 45 46 47 48 49 50 51 52 53 54 55 56 57 58 59 60 61 62 63, f
93;
#X obj 192 40 bng 15 250 50 0 empty empty empty 17 7 0 10 -262144 -1
-1;
#X obj 246 48 delay 10560;
#X obj 93 235 sel 64 65 66 67 68 69 70 71 72 73 74 75 76 77 78 79 80
81 82 83 84 85 86 87 88 89 90 91 92 93 94 95, f 65;
#X obj 120 166 % 96;
#X obj 207 333 osc~ 440;
#X msg 94 290 48;
#X msg 125 290 50;
#X msg 159 289 53;
#X msg 190 288 55;
#X msg 218 289 57;
#X msg 249 289 59;
#X msg 278 288 60;
#X msg 311 288 64;
#X msg 340 289 65;
#X msg 369 289 67;
#X obj 212 387 *~ 0.4;
#X msg 231 73 60;
#X obj 365 58 tgl 15 0 empty empty empty 17 7 0 10 -262144 -1 -1 1
1;
#X text 165 23 2nd click;
#X text 3 33 1st click;
#X text 684 0 오른손 멜로디;
#X text 34 80 왼손 반주;
#X text 18 437 왼손은 이걸로 하고 싶었는데 line~이랑
같이 dac에 넣는 방법을 모르겠음.;
#X obj 1024 445 mtof;
#X obj 1025 468 osc~ 440;
#X msg 982 402 55;
#X msg 1054 402 60;
#X msg 1084 402 62;
#X msg 1117 401 64;
#X msg 1151 401 65;
#X msg 1185 401 67;
#X msg 1216 402 69;
#X msg 1016 402 59;
#X obj 395 114 delay 21120;
#X msg 1249 402 72;
#X obj 1107 212 tgl 15 0 empty empty empty 17 7 0 10 -262144 -1 -1
0 1;
#X obj 1107 189 == 1;
#X msg 1107 236 0.6;
#X obj 1026 495 *~ 0;
#X obj 818 311 *~ 0;
#X obj 1244 460 tgl 15 0 empty empty empty 17 7 0 10 -262144 -1 -1
0 1;
#X msg 1244 484 0.6;
#X msg 669 369 0;
#X obj 669 346 delay 31620;
#X obj 1150 214 tgl 15 0 empty empty empty 17 7 0 10 -262144 -1 -1
0 1;
#X obj 1149 191 == 64;
#X msg 1150 238 0;
#X obj 940 305 t b b;
#X obj 939 325 f;
#X obj 973 325 + 1;
#X obj 939 283 metro 165;
#X floatatom 1050 316 5 0 0 0 - - -;
#X obj 938 350 sel 0 1 2 3 4 5 6 7 8 9 10 11 12 13 14 15 16 17 18 19
20 21 22 23 24 25 26 27 28 29 30 31 32 33 34 35 36 37 38 39 40 41 42
43 44 45 46 47 48 49 50 51 52 53 54 55 56 57 58 59 60 61 62 63, f
97;
#X obj 1244 437 == 1;
#X connect 2 0 36 0;
#X connect 3 0 4 0;
#X connect 4 0 5 0;
#X connect 4 0 37 0;
#X connect 4 0 40 0;
#X connect 5 0 41 0;
#X connect 6 0 42 0;
#X connect 8 0 9 1;
#X connect 9 0 11 0;
#X connect 11 0 10 0;
#X connect 13 0 14 0;
#X connect 14 0 15 0;
#X connect 14 0 34 0;
#X connect 14 0 19 0;
#X connect 15 0 14 1;
#X connect 16 0 17 0;
#X connect 17 0 77 0;
#X connect 18 0 7 0;
#X connect 18 0 7 1;
#X connect 19 0 74 0;
#X connect 19 0 83 0;
#X connect 20 0 16 0;
#X connect 21 0 16 0;
#X connect 22 0 16 0;
#X connect 23 0 16 0;
#X connect 24 0 16 0;
#X connect 25 0 16 0;
#X connect 26 0 16 0;
#X connect 27 0 16 0;
#X connect 28 0 13 0;
#X connect 29 0 30 0;
#X connect 30 0 31 0;
#X connect 31 0 32 0;
#X connect 32 0 18 1;
#X connect 33 0 16 0;
#X connect 34 0 25 0;
#X connect 34 4 24 0;
#X connect 34 8 23 0;
#X connect 34 16 22 0;
#X connect 34 18 23 0;
#X connect 34 22 22 0;
#X connect 34 23 33 0;
#X connect 34 24 21 0;
#X connect 34 26 20 0;
#X connect 34 32 25 0;
#X connect 34 36 24 0;
#X connect 34 40 23 0;
#X connect 34 48 22 0;
#X connect 34 50 23 0;
#X connect 34 54 22 0;
#X connect 34 55 33 0;
#X connect 34 56 21 0;
#X connect 35 0 18 0;
#X connect 36 0 3 0;
#X connect 37 0 43 0;
#X connect 37 1 46 0;
#X connect 37 2 49 0;
#X connect 37 3 46 0;
#X connect 37 4 50 0;
#X connect 37 5 46 0;
#X connect 37 6 49 0;
#X connect 37 7 46 0;
#X connect 37 8 43 0;
#X connect 37 9 46 0;
#X connect 37 10 49 0;
#X connect 37 11 46 0;
#X connect 37 12 52 0;
#X connect 37 13 46 0;
#X connect 37 14 50 0;
#X connect 37 15 46 0;
#X connect 37 16 43 0;
#X connect 37 17 46 0;
#X connect 37 18 49 0;
#X connect 37 19 46 0;
#X connect 37 20 50 0;
#X connect 37 21 46 0;
#X connect 37 22 49 0;
#X connect 37 23 46 0;
#X connect 37 24 43 0;
#X connect 37 25 46 0;
#X connect 37 26 49 0;
#X connect 37 27 46 0;
#X connect 37 28 52 0;
#X connect 37 29 46 0;
#X connect 37 30 49 0;
#X connect 37 31 46 0;
#X connect 37 32 43 0;
#X connect 37 33 46 0;
#X connect 37 34 49 0;
#X connect 37 35 46 0;
#X connect 37 36 52 0;
#X connect 37 37 46 0;
#X connect 37 38 49 0;
#X connect 37 39 46 0;
#X connect 37 40 45 0;
#X connect 37 41 46 0;
#X connect 37 42 48 0;
#X connect 37 43 45 0;
#X connect 37 44 43 0;
#X connect 37 45 46 0;
#X connect 37 46 49 0;
#X connect 37 47 46 0;
#X connect 37 48 43 0;
#X connect 37 49 46 0;
#X connect 37 50 49 0;
#X connect 37 51 46 0;
#X connect 37 52 50 0;
#X connect 37 53 46 0;
#X connect 37 54 49 0;
#X connect 37 55 46 0;
#X connect 37 56 45 0;
#X connect 37 57 46 0;
#X connect 37 58 48 0;
#X connect 37 59 46 0;
#X connect 37 60 43 0;
#X connect 37 61 46 0;
#X connect 37 62 49 0;
#X connect 37 63 46 0;
#X connect 38 0 2 0;
#X connect 38 0 39 0;
#X connect 38 0 54 0;
#X connect 38 0 71 0;
#X connect 38 0 81 0;
#X connect 39 0 55 0;
#X connect 40 0 45 0;
#X connect 40 1 47 0;
#X connect 40 2 49 0;
#X connect 40 3 47 0;
#X connect 40 4 51 0;
#X connect 40 5 47 0;
#X connect 40 6 49 0;
#X connect 40 7 47 0;
#X connect 40 8 50 0;
#X connect 40 9 46 0;
#X connect 40 10 49 0;
#X connect 40 11 46 0;
#X connect 40 12 45 0;
#X connect 40 14 46 0;
#X connect 40 16 43 0;
#X connect 40 17 46 0;
#X connect 40 18 49 0;
#X connect 40 20 44 0;
#X connect 40 21 47 0;
#X connect 40 22 49 0;
#X connect 40 23 47 0;
#X connect 40 24 45 0;
#X connect 40 25 46 0;
#X connect 40 26 48 0;
#X connect 40 27 49 0;
#X connect 40 28 48 0;
#X connect 41 0 4 1;
#X connect 41 0 12 0;
#X connect 42 0 53 0;
#X connect 43 0 6 0;
#X connect 44 0 6 0;
#X connect 45 0 6 0;
#X connect 46 0 6 0;
#X connect 47 0 6 0;
#X connect 48 0 6 0;
#X connect 49 0 6 0;
#X connect 50 0 6 0;
#X connect 51 0 6 0;
#X connect 52 0 6 0;
#X connect 53 0 35 0;
#X connect 54 0 29 0;
#X connect 55 0 28 0;
#X connect 61 0 62 0;
#X connect 62 0 76 0;
#X connect 63 0 61 0;
#X connect 64 0 61 0;
#X connect 65 0 61 0;
#X connect 66 0 61 0;
#X connect 67 0 61 0;
#X connect 68 0 61 0;
#X connect 69 0 61 0;
#X connect 70 0 61 0;
#X connect 71 0 88 0;
#X connect 72 0 61 0;
#X connect 73 0 75 0;
#X connect 74 0 73 0;
#X connect 75 0 77 1;
#X connect 76 0 35 1;
#X connect 77 0 35 1;
#X connect 78 0 79 0;
#X connect 79 0 76 1;
#X connect 80 0 29 0;
#X connect 81 0 80 0;
#X connect 82 0 84 0;
#X connect 83 0 82 0;
#X connect 85 0 86 0;
#X connect 86 0 87 0;
#X connect 86 0 89 0;
#X connect 86 0 90 0;
#X connect 86 0 91 0;
#X connect 87 0 86 1;
#X connect 88 0 85 0;
#X connect 90 0 69 0;
#X connect 90 4 68 0;
#X connect 90 8 67 0;
#X connect 90 16 68 0;
#X connect 90 18 72 0;
#X connect 90 20 68 0;
#X connect 90 22 64 0;
#X connect 90 24 66 0;
#X connect 90 28 65 0;
#X connect 90 32 68 0;
#X connect 90 38 67 0;
#X connect 90 40 66 0;
#X connect 90 44 64 0;
#X connect 90 48 65 0;
#X connect 91 0 78 0;
